<?xml version="1.0" encoding="utf-8"?>
<!-- Generator: Adobe Illustrator 27.7.0, SVG Export Plug-In . SVG Version: 6.00 Build 0)  -->
<svg version="1.1" id="line" xmlns="http://www.w3.org/2000/svg" xmlns:xlink="http://www.w3.org/1999/xlink" x="0px" y="0px"
	 viewBox="0 0 64 64" style="enable-background:new 0 0 64 64;" xml:space="preserve">
<style type="text/css">
	.st0{fill:#031CA6;}
</style>
<path class="st0" d="M57.4,4H6.6c-1.1,0-2,0.9-2,2v39.7c0,1.1,0.9,2,2,2h14.5c0.6,0,1-0.4,1-1c0-0.6-0.4-1-1-1l-14.4,0L6.6,6l50.7,0
	l0,39.7H42.9c-0.6,0-1,0.4-1,1c0,0.6,0.4,1,1,1h14.5c1.1,0,2-0.9,2-2V6C59.3,4.9,58.4,4,57.4,4z"/>
<path class="st0" d="M47.5,41.3h-4.5c-0.6,0-1,0.4-1,1c0,0.6,0.4,1,1,1h5.4c0.6,0,1-0.4,1-1c0,0,0,0,0,0c0-2.5,2-4.5,4.5-4.5
	c0.6,0,1-0.4,1-1c0,0,0,0,0,0V14.9c0-0.6-0.4-1-1-1c0,0,0,0,0,0c-2.5,0-4.5-2-4.5-4.5c0-0.6-0.4-1-1-1c0,0,0,0,0,0H15.5
	c-0.6,0-1,0.4-1,1c0,0,0,0,0,0c0,2.5-2,4.5-4.5,4.5c-0.6,0-1,0.4-1,1c0,0,0,0,0,0v21.9c0,0.6,0.4,1,1,1c0,0,0,0,0,0
	c2.5,0,4.5,2,4.5,4.5c0,0.6,0.4,1,1,1c0,0,0,0,0,0h5.4c0.6,0,1-0.4,1-1c0-0.6-0.4-1-1-1c0,0,0,0,0,0h-4.5c-0.4-2.8-2.6-5-5.4-5.4
	V15.8c2.8-0.4,5-2.6,5.4-5.4h31.1c0.4,2.8,2.6,5,5.4,5.4v20.1C50.2,36.3,48,38.5,47.5,41.3z"/>
<path class="st0" d="M15.4,22.9c0,0.6,0.4,1,1,1c0,0,0,0,0,0h31.2c0.6,0,1-0.4,1-1s-0.4-1-1-1H16.4C15.8,21.9,15.4,22.4,15.4,22.9
	C15.4,22.9,15.4,22.9,15.4,22.9z"/>
<path class="st0" d="M48.6,27.8c0-0.6-0.4-1-1-1c0,0,0,0,0,0H16.4c-0.6,0-1,0.4-1,1s0.4,1,1,1h31.2C48.2,28.8,48.6,28.4,48.6,27.8
	C48.6,27.8,48.6,27.8,48.6,27.8z"/>
<path class="st0" d="M39.8,19c0.6,0,1-0.5,1-1c0-0.5-0.4-1-1-1H24.2c-0.6,0-1,0.5-1,1c0,0.5,0.4,1,1,1H39.8z"/>
<path class="st0" d="M32,35.8c-8,0-11.3,10.4-4.9,15l0,8.2c0,0.6,0.4,1,1,1c0.2,0,0.3,0,0.4-0.1l3.5-1.7l3.5,1.7
	c0.5,0.2,1.1,0,1.3-0.5c0.1-0.1,0.1-0.3,0.1-0.4v-8.2C43.3,46.2,40,35.7,32,35.8z M34.9,57.4l-2.5-1.2c-0.3-0.1-0.6-0.1-0.9,0
	l-2.5,1.2v-5.5c1.9,0.7,3.9,0.7,5.8,0L34.9,57.4z M32,50.4c-3.5,0-6.3-2.8-6.3-6.3c0.3-8.4,12.3-8.4,12.6,0
	C38.3,47.5,35.5,50.4,32,50.4z"/>
</svg>
