<?xml version="1.0" encoding="utf-8"?>
<!-- Generator: Adobe Illustrator 27.7.0, SVG Export Plug-In . SVG Version: 6.00 Build 0)  -->
<svg version="1.1" id="Camada_1" xmlns="http://www.w3.org/2000/svg" xmlns:xlink="http://www.w3.org/1999/xlink" x="0px" y="0px"
	 viewBox="0 0 512 512" style="enable-background:new 0 0 512 512;" xml:space="preserve">
<style type="text/css">
	.st0{fill:#031CA6;}
</style>
<g transform="scale(8)">
	<path class="st0" d="M42,30h-8V18c0-1.1-0.9-2-2-2s-2,0.9-2,2v14c0,1.1,0.9,2,2,2h10c1.1,0,2-0.9,2-2S43.1,30,42,30z"/>
	<path class="st0" d="M32,6C17.7,6,6,17.7,6,32c0,14.3,11.7,26,26,26c14.3,0,26-11.7,26-26C58,17.7,46.3,6,32,6z M34,53.9V52
		c0-1.1-0.9-2-2-2s-2,0.9-2,2v1.9c-10.5-1-19-9.4-19.9-19.9H12c1.1,0,2-0.9,2-2s-0.9-2-2-2h-1.9c1-10.5,9.4-19,19.9-19.9V12
		c0,1.1,0.9,2,2,2s2-0.9,2-2v-1.9c10.5,1,19,9.4,19.9,19.9H52c-1.1,0-2,0.9-2,2s0.9,2,2,2h1.9C52.9,44.5,44.5,53,34,53.9z"/>
</g>
</svg>
